<?xml version="1.0" ?><svg viewBox="0 0 32 32" xmlns="http://www.w3.org/2000/svg"><g data-name="Layer 70" id="Layer_70"><path d="M25,17H7a.92.92,0,0,0-1,.8v6.4A.92.92,0,0,0,7,25H25a.92.92,0,0,0,1-.8V17.8A.92.92,0,0,0,25,17Zm-7.8,4.92a.19.19,0,0,1,0,.08.14.14,0,0,1,0,.06l0,.05-.1.08-.19.09a1.49,1.49,0,0,1-.25.07,1.55,1.55,0,0,1-.31,0,1.59,1.59,0,0,1-.59-.11,1.16,1.16,0,0,1-.44-.32,1.41,1.41,0,0,1-.28-.53,2.37,2.37,0,0,1-.1-.74,2.55,2.55,0,0,1,.11-.77,1.58,1.58,0,0,1,.3-.56,1.2,1.2,0,0,1,.46-.35,1.45,1.45,0,0,1,.59-.12,1.09,1.09,0,0,1,.26,0,.71.71,0,0,1,.22.06l.19.08.12.09a.21.21,0,0,1,0,.06.08.08,0,0,1,0,.06.22.22,0,0,1,0,.09.41.41,0,0,1,0,.12c0,.05,0,.1,0,.13a.2.2,0,0,1,0,.09.05.05,0,0,1,0,0l0,0a.19.19,0,0,1-.1-.05l-.14-.1a1,1,0,0,0-.21-.1.94.94,0,0,0-.3-.05.7.7,0,0,0-.33.08.85.85,0,0,0-.26.24,1.14,1.14,0,0,0-.15.37,1.83,1.83,0,0,0-.06.49,2,2,0,0,0,.06.52,1.19,1.19,0,0,0,.16.36.75.75,0,0,0,.26.21.89.89,0,0,0,.34.07.84.84,0,0,0,.29-.05l.22-.09.14-.1.09,0h0l0,0s0,.05,0,.09,0,.09,0,.15A.34.34,0,0,1,17.2,21.92ZM23,26h2v1a2,2,0,0,1-2,2H9a2,2,0,0,1-2-2V26H9v1H23ZM9,16H7V5A2,2,0,0,1,9,3H20.41L25,7.59V16H23V9H19a1,1,0,0,1-1-1V5H9Zm16,1H7a.92.92,0,0,0-1,.8v6.4A.92.92,0,0,0,7,25H25a.92.92,0,0,0,1-.8V17.8A.92.92,0,0,0,25,17Zm-7.8,4.92a.19.19,0,0,1,0,.08.14.14,0,0,1,0,.06l0,.05-.1.08-.19.09a1.49,1.49,0,0,1-.25.07,1.55,1.55,0,0,1-.31,0,1.59,1.59,0,0,1-.59-.11,1.16,1.16,0,0,1-.44-.32,1.41,1.41,0,0,1-.28-.53,2.37,2.37,0,0,1-.1-.74,2.55,2.55,0,0,1,.11-.77,1.58,1.58,0,0,1,.3-.56,1.2,1.2,0,0,1,.46-.35,1.45,1.45,0,0,1,.59-.12,1.09,1.09,0,0,1,.26,0,.71.71,0,0,1,.22.06l.19.08.12.09a.21.21,0,0,1,0,.06.08.08,0,0,1,0,.06.22.22,0,0,1,0,.09.41.41,0,0,1,0,.12c0,.05,0,.1,0,.13a.2.2,0,0,1,0,.09.05.05,0,0,1,0,0l0,0a.19.19,0,0,1-.1-.05l-.14-.1a1,1,0,0,0-.21-.1.94.94,0,0,0-.3-.05.7.7,0,0,0-.33.08.85.85,0,0,0-.26.24,1.14,1.14,0,0,0-.15.37,1.83,1.83,0,0,0-.06.49,2,2,0,0,0,.06.52,1.19,1.19,0,0,0,.16.36.75.75,0,0,0,.26.21.89.89,0,0,0,.34.07.84.84,0,0,0,.29-.05l.22-.09.14-.1.09,0h0l0,0s0,.05,0,.09,0,.09,0,.15A.34.34,0,0,1,17.2,21.92Z"/></g></svg>