<?xml version="1.0" ?><svg viewBox="0 0 32 32" xmlns="http://www.w3.org/2000/svg"><g data-name="Layer 71" id="Layer_71"><path d="M25,17H7a.92.92,0,0,0-1,.8v6.4A.92.92,0,0,0,7,25H25a.92.92,0,0,0,1-.8V17.8A.92.92,0,0,0,25,17ZM14.68,21.92a.19.19,0,0,1,0,.08.14.14,0,0,1,0,.06l0,.05a.49.49,0,0,1-.1.08l-.19.09a1.49,1.49,0,0,1-.25.07,1.55,1.55,0,0,1-.31,0,1.59,1.59,0,0,1-.59-.11,1.16,1.16,0,0,1-.44-.32,1.41,1.41,0,0,1-.28-.53,2.37,2.37,0,0,1-.1-.74,2.27,2.27,0,0,1,.11-.77,1.58,1.58,0,0,1,.3-.56,1.13,1.13,0,0,1,.46-.35,1.45,1.45,0,0,1,.59-.12,1.09,1.09,0,0,1,.26,0,.79.79,0,0,1,.22.06l.19.08.12.09,0,.06a.08.08,0,0,1,0,.06.22.22,0,0,1,0,.09s0,.07,0,.12,0,.1,0,.13a.2.2,0,0,1,0,.09.05.05,0,0,1,0,0,.05.05,0,0,1,0,0,.21.21,0,0,1-.09-.05l-.14-.1a.9.9,0,0,0-.22-.1.84.84,0,0,0-.29-.05.74.74,0,0,0-.34.08.94.94,0,0,0-.25.24,1,1,0,0,0-.15.37,1.83,1.83,0,0,0-.06.49,2,2,0,0,0,.06.52,1.19,1.19,0,0,0,.16.36.75.75,0,0,0,.26.21.89.89,0,0,0,.34.07.84.84,0,0,0,.29-.05l.22-.09.14-.1.09,0h0l0,0s0,.05,0,.09,0,.09,0,.15S14.68,21.89,14.68,21.92Zm2.48-1a.45.45,0,0,1,0,.08.1.1,0,0,1,0,.05h-.8V22a.06.06,0,0,1,0,0,.08.08,0,0,1,0,0l-.08,0h-.24l-.08,0a.1.1,0,0,1,0,0s0,0,0,0v-.89H15L15,21a.15.15,0,0,1,0-.08.72.72,0,0,1,0-.24.15.15,0,0,1,0-.08l0-.05h.8v-.88a.43.43,0,0,1,0-.05.1.1,0,0,1,0,0l.08,0h.24l.08,0a.08.08,0,0,1,0,0,.07.07,0,0,1,0,.05v.88h.81l0,.05a.45.45,0,0,1,0,.08s0,.07,0,.12S17.16,20.91,17.16,20.94Zm2.55,0a.15.15,0,0,1,0,.08.1.1,0,0,1,0,.05h-.8V22a.06.06,0,0,1,0,0l0,0-.08,0h-.24l-.08,0,0,0a.08.08,0,0,1,0,0v-.89h-.8l0-.05a.45.45,0,0,1,0-.08.73.73,0,0,1,0-.24.15.15,0,0,1,0-.08l0-.05h.8v-.88a.08.08,0,0,1,0-.05l0,0,.08,0h.24l.08,0,0,0a.07.07,0,0,1,0,.05v.88h.81l0,.05a.15.15,0,0,1,0,.08s0,.07,0,.12S19.71,20.91,19.71,20.94ZM9,16H7V5A2,2,0,0,1,9,3H20.41L25,7.59V16H23V9H19a1,1,0,0,1-1-1V5H9ZM23,26h2v1a2,2,0,0,1-2,2H9a2,2,0,0,1-2-2V26H9v1H23Zm2-9H7a.92.92,0,0,0-1,.8v6.4A.92.92,0,0,0,7,25H25a.92.92,0,0,0,1-.8V17.8A.92.92,0,0,0,25,17ZM14.68,21.92a.19.19,0,0,1,0,.08.14.14,0,0,1,0,.06l0,.05a.49.49,0,0,1-.1.08l-.19.09a1.49,1.49,0,0,1-.25.07,1.55,1.55,0,0,1-.31,0,1.59,1.59,0,0,1-.59-.11,1.16,1.16,0,0,1-.44-.32,1.41,1.41,0,0,1-.28-.53,2.37,2.37,0,0,1-.1-.74,2.27,2.27,0,0,1,.11-.77,1.58,1.58,0,0,1,.3-.56,1.13,1.13,0,0,1,.46-.35,1.45,1.45,0,0,1,.59-.12,1.09,1.09,0,0,1,.26,0,.79.79,0,0,1,.22.06l.19.08.12.09,0,.06a.08.08,0,0,1,0,.06.22.22,0,0,1,0,.09s0,.07,0,.12,0,.1,0,.13a.2.2,0,0,1,0,.09.05.05,0,0,1,0,0,.05.05,0,0,1,0,0,.21.21,0,0,1-.09-.05l-.14-.1a.9.9,0,0,0-.22-.1.84.84,0,0,0-.29-.05.74.74,0,0,0-.34.08.94.94,0,0,0-.25.24,1,1,0,0,0-.15.37,1.83,1.83,0,0,0-.06.49,2,2,0,0,0,.06.52,1.19,1.19,0,0,0,.16.36.75.75,0,0,0,.26.21.89.89,0,0,0,.34.07.84.84,0,0,0,.29-.05l.22-.09.14-.1.09,0h0l0,0s0,.05,0,.09,0,.09,0,.15S14.68,21.89,14.68,21.92Zm2.48-1a.45.45,0,0,1,0,.08.1.1,0,0,1,0,.05h-.8V22a.06.06,0,0,1,0,0,.08.08,0,0,1,0,0l-.08,0h-.24l-.08,0a.1.1,0,0,1,0,0s0,0,0,0v-.89H15L15,21a.15.15,0,0,1,0-.08.72.72,0,0,1,0-.24.15.15,0,0,1,0-.08l0-.05h.8v-.88a.43.43,0,0,1,0-.05.1.1,0,0,1,0,0l.08,0h.24l.08,0a.08.08,0,0,1,0,0,.07.07,0,0,1,0,.05v.88h.81l0,.05a.45.45,0,0,1,0,.08s0,.07,0,.12S17.16,20.91,17.16,20.94Zm2.55,0a.15.15,0,0,1,0,.08.1.1,0,0,1,0,.05h-.8V22a.06.06,0,0,1,0,0l0,0-.08,0h-.24l-.08,0,0,0a.08.08,0,0,1,0,0v-.89h-.8l0-.05a.45.45,0,0,1,0-.08.73.73,0,0,1,0-.24.15.15,0,0,1,0-.08l0-.05h.8v-.88a.08.08,0,0,1,0-.05l0,0,.08,0h.24l.08,0,0,0a.07.07,0,0,1,0,.05v.88h.81l0,.05a.15.15,0,0,1,0,.08s0,.07,0,.12S19.71,20.91,19.71,20.94Z"/></g></svg>